<?xml version="1.0" encoding="UTF-8" standalone="no"?>
<svg
   id="Camada_2"
   viewBox="0 0 1413.95 509.35"
   version="1.1"
   sodipodi:docname="logo_valloriza.svg"
   inkscape:version="1.2 (dc2aedaf03, 2022-05-15)"
   xmlns:inkscape="http://www.inkscape.org/namespaces/inkscape"
   xmlns:sodipodi="http://sodipodi.sourceforge.net/DTD/sodipodi-0.dtd"
   xmlns="http://www.w3.org/2000/svg"
   xmlns:svg="http://www.w3.org/2000/svg">
  <sodipodi:namedview
     id="namedview60"
     pagecolor="#ffffff"
     bordercolor="#666666"
     borderopacity="1.0"
     inkscape:showpageshadow="2"
     inkscape:pageopacity="0.0"
     inkscape:pagecheckerboard="0"
     inkscape:deskcolor="#d1d1d1"
     showgrid="false"
     inkscape:zoom="0.3025564"
     inkscape:cx="801.50346"
     inkscape:cy="267.71868"
     inkscape:window-width="1366"
     inkscape:window-height="697"
     inkscape:window-x="-8"
     inkscape:window-y="-8"
     inkscape:window-maximized="1"
     inkscape:current-layer="Camada_1-2" />
  <defs
     id="defs34">
    <style
       id="style32">.cls-1{font-family:NeoSansStd-BoldItalic, 'Neo Sans Std';font-size:118.24px;}.cls-1,.cls-2{fill:#ff6610;}.cls-3{fill:#174091;}.cls-3,.cls-4,.cls-2,.cls-5{fill-rule:evenodd;}.cls-4{fill:#ff8922;}.cls-5{fill:#0d73b3;}</style>
  </defs>
  <g
     id="Camada_1-2">
    <g
       aria-label="SOL"
       transform="translate(828.4 483.81)"
       id="text38"
       class="cls-1"
       style="font-size:118.24px;font-family:NeoSansStd-BoldItalic, 'Neo Sans Std';fill:#ff6610">
      <path
         d="m 76.974239,-84.659838 c 0,-0.82768 -0.47296,-1.41888 -1.41888,-1.65536 -4.25664,-1.1824 -15.9624,-2.60128 -24.59392,-2.60128 -17.85424,0 -34.762559,6.030239 -34.762559,26.722239 0,6.62144 3.19248,13.47936 10.6416,18.3272 l 14.543519,9.57744 c 4.7296,3.07424 6.14848,5.67552 6.14848,8.276799 0,7.56736 -5.55728,9.69568 -12.17872,9.69568 -4.61136,0 -17.499519,-0.94592 -22.229119,-1.41888 -0.11824,0 -0.23648,0 -0.35472,0 -1.30064,0 -2.24656,0.82768 -2.48304,2.24656 L 8.2767999,-3.9019199 c 0,0.11824 0,0.23648 0,0.35472 0,1.0641599 0.8276799,1.7735999 1.8918401,2.0100799 C 15.9624,0 23.17504,1.06416 32.515999,1.06416 c 19.86432,0 36.77264,-8.6315199 36.77264,-30.269439 0,-6.85792 -3.78368,-13.12464 -12.65168,-18.9184 l -13.71584,-8.98624 c -4.84784,-3.19248 -6.03024,-4.37488 -6.03024,-6.85792 0,-6.62144 4.84784,-7.56736 10.52336,-7.56736 8.04032,0 21.51968,1.06416 24.8304,1.30064 0.11824,0 0.11824,0 0.23648,0 1.30064,0 2.12832,-0.70944 2.3648,-2.01008 l 2.12832,-11.942239 c 0,-0.11824 0,-0.35472 0,-0.47296 z"
         id="path445" />
      <path
         d="m 155.60376,-60.184159 c 0,-20.1008 -13.24288,-28.732319 -29.08704,-28.732319 -19.74608,0 -36.536161,8.631519 -41.738721,37.955039 l -2.48304,14.07056 c -0.5912,3.19248 -0.82768,6.14848 -0.82768,8.98624 0,19.3913592 12.88816,28.968799 29.087041,28.968799 22.22912,0 36.89088,-10.2868798 41.73872,-37.955039 l 2.48304,-14.07056 c 0.5912,-3.31072 0.82768,-6.38496 0.82768,-9.22272 z m -20.33728,1.41888 c 0,2.24656 -0.35472,4.84784 -0.82768,7.80384 l -2.48304,14.07056 c -2.48304,14.188799 -8.2768,20.219039 -18.20896,20.219039 -7.80384,0 -11.824,-3.07424 -11.824,-11.942239 0,-2.3648 0.23648,-5.08432 0.82768,-8.2768 l 2.48304,-14.07056 c 2.60128,-14.78 8.15856,-20.21904 18.09072,-20.21904 7.92208,0 11.94224,3.5472 11.94224,12.4152 z"
         id="path447" />
      <path
         d="m 213.30487,-14.30704 c 0,-1.1824 -0.82768,-2.01008 -2.01008,-2.01008 h -20.33728 c -4.49312,0 -6.5032,-1.1824 -6.5032,-4.96608 0,-0.82768 0.11824,-1.89184 0.35472,-3.07424 l 10.75984,-61.130078 c 0,-0.11824 0,-0.23648 0,-0.47296 0,-1.06416 -0.70944,-1.89184 -1.89184,-1.89184 h -15.48944 c -1.30064,0 -2.60128,1.06416 -2.83776,2.3648 l -10.75984,61.130078 c -0.35472,2.12832 -0.5912,4.1384 -0.5912,5.912 0,14.8982401 11.94224,19.5096 24.94864,19.5096 6.26672,0 15.60768,-0.70944001 19.62784,-1.53711999 1.7736,-0.35472 2.48304,-0.94592001 2.71952,-2.48303991 l 2.01008,-10.9963201 c 0,-0.11824 0,-0.23648 0,-0.35472 z"
         id="path449" />
    </g>
    <g
       aria-label="UÇ"
       transform="translate(1037.81 483.81)"
       id="text42"
       class="cls-1"
       style="font-size:118.24px;font-family:NeoSansStd-BoldItalic, 'Neo Sans Std';fill:#ff6610">
      <path
         d="m 91.281278,-85.960478 c 0,-1.1824 -0.94592,-1.89184 -2.12832,-1.89184 H 73.781759 c -1.30064,0 -2.48304,0.94592 -2.71952,2.24656 l -9.34096,52.616799 c -2.12832,12.060479 -6.26672,17.144799 -16.90832,17.144799 -8.2768,0 -11.58752,-3.07424 -11.58752,-10.16864 0,-2.010079 0.23648,-4.374879 0.70944,-6.976159 l 9.34096,-52.616799 c 0,-0.11824 0,-0.23648 0,-0.35472 0,-1.06416 -0.82768,-1.89184 -2.01008,-1.89184 H 25.77632 c -1.30064,0 -2.48304,0.94592 -2.71952,2.24656 l -9.34096,52.616799 c -0.5912,3.07424 -0.70944,5.793759 -0.70944,8.395039 0,17.9724801 12.17872,25.65808 28.732319,25.65808 18.80016,0 34.8808,-4.3748799 40.2016,-34.053119 l 9.340959,-52.616799 c 0,-0.11824 0,-0.23648 0,-0.35472 z"
         id="path452" />
      <path
         d="m 160.45173,-84.541598 c 0,-0.11824 0,-0.23648 0,-0.35472 0,-1.1824 -0.70944,-1.53712 -2.12832,-2.01008 -2.3648,-0.82768 -8.98624,-2.01008 -17.26304,-2.01008 -18.9184,0 -35.94496,6.384959 -41.620483,37.482079 l -2.71952,14.89824 c -0.5912,3.07424 -0.82768,6.03024 -0.82768,8.74976 0,19.3913592 13.715843,28.850559 29.205283,28.850559 8.2768,0 15.3712,-1.1824 17.97248,-2.01007998 1.7736,-0.47296002 2.71952,-1.06416002 3.07424,-2.71951992 l 2.12832,-11.4692801 c 0,-0.23648 0.11824,-0.47296 0.11824,-0.5912 0,-1.1824 -0.82768,-1.7736 -2.01008,-1.7736 -0.11824,0 -0.23648,0 -0.35472,0 -4.61136,0.35472 -11.11456,0.94592 -17.61776,0.94592 -6.73968,0 -11.94224,-2.956 -11.94224,-12.769919 0,-2.12832 0.23648,-4.49312 0.70944,-7.21264 l 2.71952,-14.89824 c 2.83776,-15.72592 10.0504,-19.98256 18.20896,-19.98256 6.5032,0 12.88816,0.5912 17.26304,0.94592 h 0.11824 c 0,0 0,0 0.11824,0 1.53712,0 2.60128,-0.94592 2.83776,-2.3648 l 2.01008,-11.469279 c 0,-0.11824 0,-0.11824 0,-0.23648 z M 134.08421,4.8478399 c 0,-0.47296 -0.47296,-0.70944 -1.1824,-0.70944 h -15.60768 c -1.65536,0 -2.24656,0.47296 -3.5472,1.7736 L 100.38581,19.74608 c -0.472963,0.47296 -0.709443,0.94592 -0.709443,1.30064 0,0.47296 0.23648,0.70944 0.945923,0.70944 h 12.65168 c 1.53712,0 1.89184,-0.47296 3.07424,-1.41888 L 133.37477,5.9119999 c 0.47296,-0.47296 0.70944,-0.82768 0.70944,-1.06416 z"
         id="path454" />
    </g>
    <g
       aria-label="ÕES"
       transform="translate(1185.74 483.81)"
       id="text46"
       class="cls-1"
       style="font-size:118.24px;font-family:NeoSansStd-BoldItalic, 'Neo Sans Std';fill:#ff6610">
      <path
         d="m 86.078718,-60.184159 c 0,-20.1008 -13.242879,-28.732319 -29.087039,-28.732319 -19.74608,0 -36.536159,8.631519 -41.738719,37.955039 l -2.48304,14.07056 c -0.5912,3.19248 -0.82768,6.14848 -0.82768,8.98624 0,19.3913592 12.88816,28.968799 29.087039,28.968799 22.22912,0 36.89088,-10.2868798 41.73872,-37.955039 l 2.483039,-14.07056 c 0.5912,-3.31072 0.82768,-6.38496 0.82768,-9.22272 z m -20.337279,1.41888 c 0,2.24656 -0.35472,4.84784 -0.82768,7.80384 l -2.48304,14.07056 c -2.48304,14.188799 -8.2768,20.219039 -18.20896,20.219039 -7.80384,0 -11.824,-3.07424 -11.824,-11.942239 0,-2.3648 0.23648,-5.08432 0.82768,-8.2768 l 2.48304,-14.07056 c 2.60128,-14.78 8.15856,-20.21904 18.09072,-20.21904 7.92208,0 11.94224,3.5472 11.94224,12.4152 z m 19.036639,-51.552641 c 0,-0.82768 -0.47296,-1.30064 -1.41888,-1.30064 h -8.276799 c -1.1824,0 -2.01008,0.5912 -2.24656,1.89184 l -0.35472,2.24656 c -0.47296,2.956 -1.53712,3.19248 -3.31072,3.19248 -1.30064,0 -2.60128,-0.82768 -4.37488,-2.12832 l -4.49312,-3.31072 c -2.24656,-1.65536 -6.03024,-2.71952 -8.39504,-2.71952 -9.69568,0 -14.30704,4.02016 -16.43536,14.307042 l -0.47296,2.24656 c 0,0.23648 -0.11824,0.47296 -0.11824,0.5912 0,0.94592 0.5912,1.41888 1.53712,1.41888 h 8.39504 c 1.1824,0 1.89184,-0.70944 2.12832,-2.01008 l 0.47296,-2.24656 c 0.5912,-2.837762 1.7736,-3.192482 3.31072,-3.192482 1.30064,0 2.60128,0.70944 4.37488,2.128322 l 4.37488,3.42896 c 2.12832,1.65536 6.38496,2.83776 8.74976,2.83776 9.4592,0 14.66176,-3.78368 16.198879,-14.425282 l 0.35472,-2.3648 c 0,-0.23648 0,-0.35472 0,-0.5912 z"
         id="path457" />
      <path
         d="m 159.62399,-85.723998 c 0,-1.06416 -0.70944,-1.41888 -2.12832,-1.65536 -4.02016,-0.5912 -9.69568,-1.53712 -22.4656,-1.53712 -16.19888,0 -29.32352,2.3648 -33.34368,25.303359 l -6.976161,39.255679 c -0.35472,2.01008 -0.5912,4.02016 -0.5912,5.79376 0,15.2529601 12.888161,19.62784 25.185121,19.62784 12.76992,0 18.68192,-0.94592 22.93856,-1.53711999 1.65536,-0.23648 2.48304,-0.94592001 2.71952,-2.48303991 l 2.01008,-10.9963201 c 0,-0.11824 0,-0.23648 0,-0.35472 0,-1.1824 -0.82768,-2.01008 -2.01008,-2.01008 h -24.00272 c -4.49312,0 -6.5032,-1.1824 -6.5032,-4.96608 0,-0.82768 0.11824,-1.89184 0.35472,-3.07424 l 2.24656,-12.533439 h 30.62416 c 1.30064,0 2.60128,-1.06416 2.83776,-2.3648 l 1.89184,-11.2328 c 0,-0.11824 0,-0.23648 0,-0.35472 0,-1.1824 -0.70944,-2.01008 -1.89184,-2.01008 h -30.62416 l 1.89184,-10.87808 c 1.1824,-6.97616 4.1384,-7.92208 8.98624,-7.92208 h 24.00272 c 1.30064,0 2.48304,-1.06416 2.71952,-2.3648 l 2.01008,-10.996319 c 0,-0.23648 0.11824,-0.47296 0.11824,-0.70944 z"
         id="path459" />
      <path
         d="m 228.20312,-84.659838 c 0,-0.82768 -0.47296,-1.41888 -1.41888,-1.65536 -4.25664,-1.1824 -15.9624,-2.60128 -24.59392,-2.60128 -17.85424,0 -34.76256,6.030239 -34.76256,26.722239 0,6.62144 3.19248,13.47936 10.6416,18.3272 l 14.54352,9.57744 c 4.7296,3.07424 6.14848,5.67552 6.14848,8.276799 0,7.56736 -5.55728,9.69568 -12.17872,9.69568 -4.61136,0 -17.49952,-0.94592 -22.22912,-1.41888 -0.11824,0 -0.23648,0 -0.35472,0 -1.30064,0 -2.24656,0.82768 -2.48304,2.24656 l -2.01008,11.5875201 c 0,0.11824 0,0.23648 0,0.35472 0,1.0641599 0.82768,1.7735999 1.89184,2.0100799 5.79376,1.53712 13.0064,2.60128 22.34736,2.60128 19.86432,0 36.77264,-8.6315199 36.77264,-30.269439 0,-6.85792 -3.78368,-13.12464 -12.65168,-18.9184 L 194.15,-57.109919 c -4.84784,-3.19248 -6.03024,-4.37488 -6.03024,-6.85792 0,-6.62144 4.84784,-7.56736 10.52336,-7.56736 8.04032,0 21.51968,1.06416 24.8304,1.30064 0.11824,0 0.11824,0 0.23648,0 1.30064,0 2.12832,-0.70944 2.3648,-2.01008 l 2.12832,-11.942239 c 0,-0.11824 0,-0.35472 0,-0.47296 z"
         id="path461" />
    </g>
    <path
       class="cls-5"
       d="M0,295.81c15.81-18.7,31.63-37.39,47.45-56.08,1.55-.22,2.7,.5,3.71,1.56,20.87,37.66,41.52,75.46,61.9,113.4,1.3,2.42,2.56,4.87,3.1,7.64-1.2,24.5-5.06,48.72-7.5,73.08-1.49,14.91-2.05,29.95-5.82,44.57-5.62,4.35-5.08-2.19-6.07-3.98-14.51-26.16-28.74-52.48-43.01-78.78-16.6-30.58-33.17-61.18-49.79-91.76-1.14-2.09-2.63-3.98-3.96-5.97v-3.68Z"
       id="path48" />
    <path
       class="cls-3"
       d="M102.83,479.97c-2.79-3.78-.46-7.48-.04-11.32,2.75-25.02,5.17-50.08,7.76-75.11,1.15-11.16,2.43-22.3,3.65-33.45,.06-4.73,3.38-7.79,5.95-11.13,25.79-33.54,51.03-67.51,77.33-100.65,8.99-11.34,8.4-23.9,10-36.37,3.69-28.84,6.23-57.81,9.58-86.69,.18-1.54,.62-3,1.54-4.28,1.2-1.01,2.56-1.19,4.03-.76,8.92,10.25,13.8,22.91,20.31,34.56,14.14,25.29,27.69,50.92,41.89,76.18,1.85,3.29,3.29,6.62,1.04,10.31-60.18,78.68-120.36,157.35-180.56,236.03-.74,.96-1.66,1.78-2.49,2.66"
       id="path50" />
    <path
       class="cls-4"
       d="M222.76,121.3c-1.17,.02-2.33,.03-3.5,.05-9.85,18.52-24.35,33.69-36.72,50.37-15.32,20.68-31.3,40.89-46.7,61.51-6.02,8.07-12.81,12.17-23.2,11.79-17.15-.64-34.35-.13-51.53-.21-3.91-.02-8.07,.62-11.2-2.75-.83-.78-1.65-1.55-2.47-2.33,40.89-53.63,81.78-107.26,122.69-160.87,18.78-24.62,37.55-49.25,56.56-73.69,1.52-1.95,2.23-7.81,7.32-3.8,.74,16.55-2.48,32.78-4.18,49.12-2.45,23.59-5.6,47.11-7.08,70.8"
       id="path52" />
    <path
       class="cls-2"
       d="M222.76,121.3c-5.39-5.91-1.88-12.91-1.31-18.94,3-32.09,7.02-64.08,10.64-96.12,.21-1.85,.15-3.69,1.92-4.87,17.15,31.03,34.37,62.02,51.42,93.11,25.01,45.61,49.89,91.28,74.81,136.93,1.56,2.86,3,5.79,5.11,9.87h-79.48c-.15-3.77-1.71-6.99-3.51-10.26-19.67-35.67-39.24-71.39-58.8-107.12-.43-.78-.54-1.74-.8-2.61"
       id="path54" />
    <path
       class="cls-3"
       d="M1413.36,337.8c-5.88,4.63-12.9,2.12-19.33,2.21-25.16,.33-25.46,.13-25.31-22.34,.05-6.9-2.03-9.35-9.8-8.79-9.44,.68-20.54-2.34-28.02,1.23-7.66,3.67-8.07,14.85-11.47,22.78-2.25,5.23-5.4,7.48-11.54,7.32-10.11-.27-20.23-.13-30.35-.06-5.92,.04-7.57-1.75-5.21-7.11,17.73-40.19,35.11-80.5,52.89-120.67,4.48-10.12,13.1-16.68,24.93-19.24,12.99-2.81,26.12-3.21,39.18-.42,12.42,2.65,18.29,9.2,19.12,22.33,1.23,19.41,1.86,38.86,2.74,58.29,.58,12.77,1.15,25.54,1.78,38.3,.07,1.53,1.87,22.85,.39,26.17M412.16,142.22c-6.75-.23-9.37,2.31-9,8.46,.92,15.55,1.39,31.13,2.14,46.68,1.83,38.07,3.6,76.14,5.64,114.2,.83,15.41,8.88,24,25.24,27.86,13.57,3.2,27.28,3,41.12,1.61,21.69-2.18,37.34-11.75,45.94-30.1,3.71-7.92,6.83-16.07,10.32-24.07,19.48-44.68,38.99-89.36,58.46-134.04,4.46-10.24,4.21-10.52-8.2-10.54-11.97-.02-24.01,.68-35.9-.21-10.95-.82-15.67,3.32-19.2,12.29-17.63,44.72-35.88,89.24-54.12,133.76-1.36,3.32-1.18,9.49-6.44,8.73-4.48-.65-2.13-6.2-2.22-9.49-.61-21.96-.93-43.93-1.24-65.9-.33-23.36-.69-46.73-.69-70.09,0-6.83-2.84-9.61-10.41-9.17-6.73,.39-13.5,.08-20.25,.08-7.06,0-14.13,.19-21.18-.05Zm660.14,197.9c6.07-.04,8.36-2.13,6-7.86-5.79-14.05-10.86-28.35-16.93-42.3-2.74-6.31-2.05-9.33,5.13-12.82,20.18-9.82,31.32-34.17,26.59-55.31-3.83-17.12-18.89-26.95-44.54-29.92-20.01-2.31-39.82-.89-59.62,1.52-13.68,1.66-15.67,3.65-17.99,15.96-2.21,11.78-4.58,23.53-6.87,35.3-5.62,28.73-11.12,57.47-16.94,86.16-1.38,6.83,.41,9.84,8.63,9.4,8.87-.48,17.8-.21,26.7-.09,5.53,.07,8.28-1.91,9.14-7.12,1.97-11.81,4.31-23.58,6.97-35.27,.85-3.76-1.26-9.37,6.17-10.19,7.36-.81,11.06,1.83,13.01,8.45,2.59,8.83,6.37,17.39,9.77,26.03,8.8,22.35,2.29,17.47,28.19,18.08,5.53-.01,11.05,.01,16.58-.02Zm-228.71-1.11c31.91,7.72,79.02,2.74,95.81-43.9,5.81-16.16,9.37-32.87,10.86-49.73,2.29-26.04-8.93-43.19-31.64-50.89-38.39-13.01-81.5,3.7-96.83,38.03-8.58,19.22-11.26,39.69-13.37,56.73-.24,26.66,12.52,44.28,35.18,49.76Zm-171.68-123.62c-.37-14.09-7.5-20.76-22.41-23.27-10.41-1.75-20.77-1.45-31.14,.03-14.1,2.02-24.7,8.71-30.03,20.75-17.7,39.94-34.94,80.05-52.54,120.03-2.26,5.12-1.22,7.27,4.98,7.22,10.74-.08,21.49-.09,32.23,.01,5.07,.05,7.76-2.11,9.37-6.39,2.46-6.56,5.42-12.98,8.23-19.44,.87-2,1.09-4.98,4.05-5.05,11.92-.28,24.7-2.78,35.39,1.13,5.09,1.86,1.19,12.84,1.96,19.65,.09,.83,.19,1.68,.09,2.5-.66,5.94,2.58,7.83,8.75,7.65,9.2-.27,18.43-.33,27.62,0,7.39,.28,9.54-2.45,9.1-8.96-1.29-18.87-5.13-96.15-5.65-115.87Zm548.77,80.94c17.23-19.18,33.68-39,52-57.29,11.94-11.91,14.29-25.89,16.89-40.39,.79-4.4-1.11-6.04-5.93-6.02-31.9,.08-63.79,.07-95.69,.01-4.6,0-7.73,1.42-8.55,5.8-1.38,7.39-2.65,14.8-4.16,22.17-1.03,5.02,.74,7.07,6.65,6.95,12.57-.25,25.15-.05,37.72,.08,2.26,.02,5.33-1.43,6.59,1.26,1.17,2.51-1.81,3.88-3.25,5.49-18.3,20.54-36.15,41.44-55.26,61.34-10.03,10.44-14.66,21.95-16.53,35.22-1.01,7.09,1.11,9.38,9,9.29,27.6-.31,55.21-.06,82.81-.14,25.44-.07,20.27,2.06,24.74-18.97,4.03-18.94,3.06-15.65-15.17-15.88-12.41-.16-24.83-.03-39.46-.03,3.59-4.21,5.54-6.6,7.61-8.91Zm-488.72-150.9c-6.84-.66-9.99,1.82-11.16,7.97-11.39,59.93-22.9,119.84-34.6,179.71-1.08,5.55,1.16,7.08,6.59,7.03,9.2-.07,18.42-.32,27.61,.08,7.31,.32,10.03-2.32,11.25-8.86,10.33-55.02,20.96-109.99,31.74-164.94,4.11-20.98,4.4-20.93-18.55-20.93-4.3,0-8.63,.33-12.88-.08Zm40.37,194.7c15.69,0,15.52-.03,18.15-14.08,4.39-23.53,9.01-47.03,13.56-70.54,6.44-33.34,12.74-66.72,19.48-100.01,1.52-7.5,.22-11.11-9.2-10.12-5.75,.6-11.64,.11-17.46,.11-16.89,0-16.64,.04-19.45,14.8-10.09,53.05-20.25,106.09-30.63,159.1-4.06,20.77-4.36,20.73,19.11,20.73,2.15,0,4.29,0,6.44,0Zm354.03,.04c6.14,.34,8.77-2.36,9.78-7.57,8.56-44.3,17.22-88.58,25.94-132.85,1-5.07-.86-7.25-6.64-7.13-8.89,.18-17.82,.5-26.67-.09-8.28-.56-11.19,2.6-12.5,9.67-7.29,39.14-14.94,78.23-22.65,117.31-4.08,20.66-4.25,20.63,18.95,20.62,4.6,0,9.21-.21,13.8,.05Zm234.44-109.05c-5.22,12.44-10.35,24.91-15.44,37.4-3.49,8.56-3.44,8.58,7.05,8.6,15.32,.02,15.27,.02,15.18-13.92-.07-12.84-.01-25.68-.01-39.18-5.88,1.53-5.78,4.71-6.78,7.1Zm-321.82,22.45c7.99-4,9.73-10.92,9.64-18.49-.05-4.86-3.04-8.05-7.96-8.94-9.03-1.65-19-2.77-27.04,.42-4.75,1.89-3.07,10.6-4.46,16.21-.27,1.08-.55,2.16-.78,3.25q-2.31,10.92,12.64,10.87c4.45-.11,11.6-.13,17.96-3.31Zm-145.55-26.33c-11.02-2.6-21.82,.67-26.61,9.93-9.21,17.78-12.5,36.96-12.28,56.49,.09,7.8,6.01,11.69,14.48,12.31,12.72,.92,21.33-3.79,26.01-15.53,5.84-14.67,7.7-30.15,9.65-42.9,.38-12.8-3.22-18.41-11.24-20.3Zm-266.54-1.88c-5.06,11.9-10.14,23.79-15.05,35.74-7.32,17.83-6.99,18.1,14.37,16.09,3.31-.31,5.1-1,5.08-4.32-.08-16.01-.04-32.02-.04-49.59-3.38,1.58-4.21,1.71-4.37,2.08Z"
       id="path56" />
  </g>
</svg>
